PathFileType   4   (X/Y/Z)
DataRate	CameraRate	NumFrames	NumMarkers	Units	OrigDataRate	OrigDataStartFrame	OrigNumFrames
120.0	120.0	9	37	mm	120.0	88	116
Frame#	Time	midhip	hip_r	hip_l	knee_r	knee_l	ankle_r	ankle_l	midasis	asis_r	asis_l	psis_r	psis_l	epicondLat_r	epicondLat_l	epicondMed_r	epicondMed_l	malleolusLat_r	malleolusLat_l	malleolusMedv_r	malleolusMedv_l	neck	subclavicle_r	subclavicle_l	sternalnotch	xyphoidprocess	thighwand_r	thighwand_l	upperleg1_r	upperleg1_l	upperleg2_r	upperleg2_l	shankwand_r	shankwand_l	lowerleg1_r	lowerleg1_l	toe_r	toe_l
 	 	X1	Y1	Z1	X2	Y2	Z2	X3	Y3	Z3	X4	Y4	Z4	X5	Y5	Z5	X6	Y6	Z6	X7	Y7	Z7	X8	Y8	Z8	X9	Y9	Z9	X10	Y10	Z10	X11	Y11	Z11	X12	Y12	Z12	X13	Y13	Z13	X14	Y14	Z14	X15	Y15	Z15	X16	Y16	Z16	X17	Y17	Z17	X18	Y18	Z18	X19	Y19	Z19	X20	Y20	Z20	X21	Y21	Z21	X22	Y22	Z22	X23	Y23	Z23	X24	Y24	Z24	X25	Y25	Z25	X26	Y26	Z26	X27	Y27	Z27	X28	Y28	Z28	X29	Y29	Z29	X30	Y30	Z30	X31	Y31	Z31	X32	Y32	Z32	X33	Y33	Z33	X34	Y34	Z34	X35	Y35	Z35	X36	Y36	Z36	X37	Y37	Z37

	88	0.83333	2113.690	695.688	-181.840	2111.467	705.728	-118.421	2103.590	699.797	-243.863	2239.223	405.778	-114.201	2078.168	384.773	-211.937	2139.467	107.808	-113.946	2032.162	64.139	-203.969	2177.225	761.420	-188.292	2183.042	765.800	-95.657	2171.408	757.040	-280.927	2035.959	810.228	-160.512	2029.762	805.533	-215.323	2245.385	409.107	-64.189	2069.731	380.478	-261.032	2259.040	406.205	-157.945	2085.228	383.494	-166.858	2131.959	110.349	-81.397	2023.263	64.588	-237.299	2147.974	113.697	-139.785	2027.507	71.043	-175.136	2082.508	1152.211	-189.826	2167.171	1113.345	-130.338	2162.081	1113.206	-255.697	2159.900	1101.137	-195.332	2190.726	960.763	-195.734	2220.534	498.820	16.410	2211.292	478.577	-275.718	2227.867	567.674	-54.156	2155.542	541.144	-215.500	2271.210	495.907	-65.867	2137.668	455.973	-202.944	2146.538	211.201	-9.399	2124.495	149.740	-252.822	2183.888	256.996	-66.140	2072.930	214.343	-227.846	2223.125	64.176	-95.533	2123.231	37.091	-214.498
	89	0.84167	2123.598	694.805	-181.731	2121.613	704.908	-118.311	2113.116	698.907	-243.710	2253.211	406.178	-115.342	2080.672	384.741	-211.464	2171.275	101.849	-113.671	2032.338	64.595	-203.060	2187.012	760.577	-188.538	2193.286	765.009	-95.938	2180.737	756.145	-281.138	2045.944	809.311	-160.039	2039.335	804.709	-214.794	2259.677	409.524	-65.370	2072.026	380.597	-260.536	2272.758	407.041	-159.274	2087.900	383.275	-166.183	2163.923	104.007	-81.059	2023.314	65.084	-236.355	2179.427	107.907	-139.468	2027.738	71.458	-174.154	2092.784	1151.401	-189.629	2177.252	1112.385	-130.125	2172.710	1112.352	-255.320	2170.131	1100.196	-195.125	2200.996	959.842	-195.451	2234.125	499.147	15.358	2215.651	475.915	-275.626	2240.215	568.209	-55.373	2160.886	539.302	-215.186	2284.388	496.891	-67.307	2141.623	454.993	-202.527	2173.037	205.689	-9.247	2125.008	149.600	-252.272	2206.955	253.350	-66.406	2073.845	214.622	-227.067	2257.975	64.092	-95.941	2123.142	37.135	-214.209
	90	0.85000	2133.563	693.655	-181.667	2131.823	703.786	-118.227	2122.690	697.786	-243.580	2266.936	406.243	-116.617	2083.343	384.655	-211.045	2203.405	96.389	-113.338	2032.497	65.027	-202.209	2196.851	759.472	-188.783	2203.596	763.903	-96.211	2190.106	755.041	-281.356	2056.009	808.111	-159.526	2048.990	803.625	-214.198	2273.464	409.477	-66.645	2074.508	380.669	-260.097	2284.257	406.842	-160.701	2090.843	383.229	-165.478	2196.160	98.220	-80.682	2023.372	65.559	-235.476	2211.199	102.663	-139.160	2028.021	71.847	-173.230	2103.052	1150.310	-189.448	2187.387	1111.210	-129.877	2182.961	1111.182	-255.138	2180.391	1099.003	-194.878	2211.014	958.640	-195.212	2246.898	498.766	14.197	2220.120	473.254	-275.538	2251.594	567.952	-56.767	2166.471	537.830	-214.889	2296.148	496.953	-69.012	2145.755	453.952	-202.062	2199.538	200.499	-9.128	2125.567	149.380	-251.706	2229.821	249.799	-66.707	2074.862	214.919	-226.515	2292.684	64.684	-96.377	2123.028	37.179	-213.930
	91	0.85833	2143.588	692.235	-181.642	2142.088	702.365	-118.173	2132.311	696.437	-243.482	2280.417	405.978	-118.017	2086.179	384.509	-210.698	2235.757	91.565	-112.977	2032.648	65.432	-201.440	2206.742	758.104	-189.031	2213.963	762.483	-96.476	2199.520	753.725	-281.586	2066.160	806.633	-158.963	2058.733	802.291	-213.535	2286.774	408.971	-68.008	2077.180	380.686	-259.733	2295.708	406.189	-162.201	2093.938	383.479	-164.874	2228.563	93.111	-80.295	2023.447	66.010	-234.686	2243.115	97.934	-138.775	2028.204	72.278	-172.380	2113.344	1148.930	-189.288	2197.580	1109.777	-129.605	2193.184	1109.751	-254.917	2190.637	1097.538	-194.620	2221.081	957.184	-194.955	2258.917	497.663	12.961	2224.711	470.592	-275.467	2262.493	566.956	-57.982	2172.523	536.546	-214.608	2307.439	496.359	-70.510	2150.139	453.019	-201.658	2225.970	195.710	-9.061	2126.184	149.079	-251.153	2252.506	246.416	-67.048	2076.036	215.232	-226.000	2327.125	66.001	-96.839	2122.905	37.222	-213.672
	92	0.86667	2153.686	690.539	-181.653	2152.401	700.648	-118.155	2141.979	694.862	-243.418	2293.671	405.387	-119.518	2089.182	384.296	-210.438	2268.204	87.500	-112.626	2032.801	65.806	-200.775	2216.684	756.473	-189.281	2224.385	760.748	-96.735	2208.984	752.199	-281.827	2076.402	804.881	-158.335	2068.565	800.718	-212.808	2299.656	408.020	-69.443	2080.042	380.644	-259.460	2307.004	404.953	-163.749	2098.085	383.357	-164.283	2261.003	88.786	-79.935	2023.549	66.436	-234.005	2275.135	93.917	-138.316	2028.363	72.695	-171.613	2123.643	1147.280	-189.118	2207.803	1108.047	-129.287	2203.341	1108.004	-254.679	2200.851	1095.786	-194.366	2231.055	955.409	-194.663	2270.286	495.859	11.687	2229.441	467.920	-275.429	2272.861	565.139	-58.990	2178.648	535.122	-214.363	2318.288	494.990	-71.841	2155.167	452.195	-201.353	2252.260	191.387	-9.066	2126.871	148.698	-250.641	2275.051	243.215	-67.392	2077.305	215.425	-225.393	2361.167	68.069	-97.335	2122.793	37.262	-213.445
	93	0.87500	2163.865	688.566	-181.697	2162.760	698.640	-118.174	2151.697	693.069	-243.391	2306.718	404.478	-121.083	2092.360	384.012	-210.274	2300.590	84.291	-112.330	2032.966	66.154	-200.229	2226.682	754.584	-189.531	2234.858	758.701	-96.985	2218.506	750.467	-282.077	2086.739	802.861	-157.632	2078.491	798.916	-212.013	2312.170	406.650	-70.925	2083.099	380.538	-259.286	2317.468	402.967	-165.345	2102.027	383.102	-163.743	2293.329	85.323	-79.643	2023.685	66.838	-233.451	2307.242	90.928	-137.875	2028.562	73.025	-170.995	2133.954	1145.391	-188.883	2218.048	1105.984	-128.984	2213.517	1105.908	-254.443	2211.061	1093.749	-194.109	2240.904	953.269	-194.354	2281.142	493.411	10.414	2234.327	465.225	-275.445	2282.876	562.633	-59.962	2184.884	533.401	-214.059	2328.594	492.771	-73.180	2160.139	451.114	-201.034	2278.337	187.576	-9.159	2127.641	148.238	-250.190	2297.393	240.283	-67.798	2078.645	215.432	-224.950	2394.675	70.881	-97.884	2122.704	37.297	-213.257
	94	0.88333	2174.128	686.325	-181.772	2173.166	696.351	-118.231	2161.474	691.069	-243.404	2319.579	403.261	-122.666	2095.727	383.657	-210.210	2332.735	82.002	-112.137	2033.149	66.483	-199.813	2236.739	752.448	-189.780	2245.383	756.354	-97.226	2228.094	748.543	-282.334	2097.168	800.587	-156.848	2088.507	796.895	-211.153	2324.389	404.904	-72.423	2086.361	380.369	-259.215	2327.097	400.127	-166.911	2105.003	383.012	-163.405	2325.379	82.772	-79.463	2023.861	67.227	-233.031	2339.071	88.827	-137.525	2028.796	73.250	-170.563	2144.299	1143.273	-188.656	2228.345	1103.621	-128.746	2223.776	1103.531	-254.203	2221.291	1091.439	-193.843	2250.750	950.827	-194.089	2291.652	490.414	9.180	2239.392	462.491	-275.532	2292.601	559.489	-61.003	2191.361	531.420	-213.879	2338.447	489.731	-74.597	2164.618	449.507	-200.768	2304.126	184.304	-9.358	2128.503	147.701	-249.816	2319.449	237.653	-68.406	2080.122	215.279	-224.748	2427.513	74.403	-98.519	2122.649	37.323	-213.112
	95	0.89167	2184.472	683.837	-181.874	2183.622	693.799	-118.326	2171.323	688.876	-243.456	2332.276	401.751	-124.220	2099.299	383.238	-210.244	2364.441	80.660	-112.094	2033.358	66.808	-199.527	2246.861	750.086	-190.023	2255.960	753.728	-97.455	2237.762	746.444	-282.591	2107.675	798.076	-155.988	2098.598	794.665	-210.233	2336.398	402.833	-73.901	2089.841	380.143	-259.244	2336.042	396.326	-168.195	2108.520	382.566	-163.505	2356.972	81.145	-79.441	2024.082	67.616	-232.747	2370.337	87.532	-137.300	2029.060	73.428	-170.301	2154.675	1140.919	-188.400	2238.626	1100.983	-128.480	2234.079	1100.895	-253.985	2231.555	1088.881	-193.563	2260.555	948.112	-193.827	2301.992	486.987	8.015	2244.659	459.703	-275.700	2302.083	555.750	-62.145	2198.094	529.212	-213.952	2347.941	485.959	-76.015	2169.498	447.660	-200.850	2329.554	181.584	-9.678	2129.467	147.092	-249.525	2341.303	235.295	-69.124	2081.699	215.014	-224.631	2459.547	78.563	-99.277	2122.628	37.339	-213.010
	96	0.90000	2194.887	681.136	-181.995	2194.134	691.006	-118.459	2181.258	686.508	-243.546	2344.833	399.970	-125.702	2103.093	382.770	-210.368	2395.500	80.239	-112.248	2033.596	67.147	-199.365	2257.053	747.523	-190.255	2266.584	750.853	-97.670	2247.522	744.194	-282.840	2118.240	795.354	-155.062	2108.747	792.239	-209.267	2348.285	400.504	-75.323	2093.556	379.872	-259.365	2344.501	391.963	-169.241	2112.722	381.719	-163.936	2387.923	80.411	-79.617	2024.350	68.025	-232.592	2401.007	87.287	-137.230	2029.346	73.638	-170.189	2165.109	1138.313	-188.115	2249.008	1098.155	-128.132	2244.272	1097.990	-253.808	2241.877	1086.107	-193.266	2270.342	945.166	-193.488	2312.343	483.267	6.944	2250.149	456.854	-275.951	2311.565	551.600	-63.199	2204.951	526.823	-214.048	2357.242	481.758	-77.325	2174.859	445.781	-201.157	2354.544	179.404	-10.130	2130.538	146.422	-249.317	2362.903	233.400	-69.878	2083.214	214.668	-224.620	2490.649	83.257	-100.199	2122.638	37.346	-212.947
